<svg version="1.1" id="Layer_1" xmlns="http://www.w3.org/2000/svg" xmlns:xlink="http://www.w3.org/1999/xlink" x="0px" y="0px"
	 width="100%" viewBox="0 0 1024 1024" enable-background="new 0 0 1024 1024" xml:space="preserve">
<path fill="#000000" opacity="1.000000" stroke="none" 
	d="
M685.470581,682.423218 
	C718.523682,670.235596 743.762634,648.450806 764.456482,621.017639 
	C766.619202,622.688110 766.134155,624.301819 766.130432,625.708679 
	C766.107422,634.373047 765.899475,643.038208 765.976624,651.701111 
	C766.016541,656.181152 764.405396,659.623169 761.234497,662.762024 
	C749.915466,673.966553 736.031982,680.693542 721.193359,685.507996 
	C681.618469,698.348206 641.383972,701.450989 600.584534,692.260742 
	C579.627441,687.540039 560.904114,677.867004 543.924438,664.815918 
	C541.340149,662.829590 539.441956,662.182434 536.561218,664.461426 
	C512.794006,683.264404 485.694000,693.768616 455.549561,696.502258 
	C420.652008,699.666870 387.432129,694.230591 356.913208,676.342529 
	C318.450653,653.798523 294.673370,620.028259 284.409760,577.098511 
	C272.577393,527.607056 276.768738,479.627991 303.697601,435.471741 
	C327.862549,395.847626 363.707733,372.289032 409.459534,364.736115 
	C450.691772,357.929352 489.696167,364.531036 525.415955,387.114594 
	C529.351624,389.602936 533.224792,392.261261 536.787292,395.246216 
	C539.547058,397.558502 541.489014,397.200928 544.145081,395.104126 
	C565.121033,378.544952 588.883972,367.836395 615.301392,364.321869 
	C656.012756,358.905670 695.728638,362.577332 733.074280,381.246490 
	C742.361450,385.889130 750.816772,391.846710 757.065613,400.426605 
	C762.975220,408.540619 765.688110,417.641235 765.160645,427.630615 
	C764.748352,435.437653 760.349243,440.973389 753.887512,442.356781 
	C751.936096,442.774567 750.315247,442.925690 749.679016,440.354523 
	C742.012634,409.371124 719.494995,392.282990 692.294189,380.085602 
	C646.626587,359.607361 592.975769,369.525513 557.096252,404.340820 
	C553.522034,407.809052 553.121338,409.927277 556.603882,413.970245 
	C579.665649,440.742981 592.684265,471.928101 596.482666,507.028656 
	C600.456055,543.745789 595.907837,579.087036 579.378906,612.440735 
	C573.214600,624.879639 565.567444,636.421326 556.139099,646.637024 
	C552.948669,650.093811 553.421631,652.207825 556.608154,655.200073 
	C576.934937,674.287781 600.664490,685.804321 628.536377,688.916077 
	C647.949097,691.083496 666.699768,688.681458 685.470581,682.423218 
M327.968048,623.590454 
	C350.623627,661.599609 382.801117,684.995789 427.790039,689.021545 
	C465.306732,692.378662 497.128693,679.989380 524.577332,654.873718 
	C527.779907,651.943298 527.862305,649.941467 524.901672,646.733032 
	C514.555420,635.520752 506.061310,622.979370 499.680054,609.100220 
	C484.446777,575.968079 480.493317,541.165710 484.561249,505.206635 
	C488.570251,469.768311 501.494812,438.255615 525.893066,411.881744 
	C528.505127,409.058197 527.038574,407.661285 525.130676,405.790100 
	C485.163300,366.592529 425.764099,357.986816 376.826050,386.161621 
	C342.366760,406.000702 322.866974,437.217316 312.166016,474.602722 
	C304.828308,500.238251 303.685150,526.398315 306.262909,552.790222 
	C308.684937,577.587585 315.328583,601.136108 327.968048,623.590454 
M540.465576,635.037659 
	C542.220459,634.425232 542.769348,632.723389 543.679138,631.385071 
	C550.830078,620.865784 556.506226,609.585693 560.682068,597.579773 
	C571.203308,567.330994 573.486145,536.262024 569.983948,504.580811 
	C567.012512,477.700562 558.889343,452.620575 544.471191,429.673920 
	C543.297180,427.805542 542.562805,425.374268 539.636292,424.605774 
	C538.500305,426.209229 537.300903,427.775360 536.235474,429.427765 
	C531.532349,436.721680 527.441650,444.363953 524.221069,452.410522 
	C506.111115,497.657806 505.346436,543.797424 518.070007,590.350281 
	C522.469971,606.448730 529.400452,621.618042 540.465576,635.037659 
z"/>
</svg>